# xmcd CD database file
#
# Track frame offsets:
#	150
#	10150
#	21239
#	34966
#	46650
#	57878
#	68342
#	78683
#	89657
#	100018
#
# Disc length: 1485 seconds
#
# Revision: 1
# Processed by: cddbd v1.5.1PL2 Copyright (c) Steve Scherf et al.
# Submitted via: CDex 1.51
#
DISCID=7405cb0a
DTITLE=Patsy Cline - The Collection [CD 3]
DYEAR=2002
DGENRE=Country
TTITLE0=Turn The Cards Slowly
TTITLE1=A Stranger In My Arms
TTITLE2=A Church, A Courtroom And Then Goodbye
TTITLE3=Never No More
TTITLE4=Dear God
TTITLE5=Lovesick Blues
TTITLE6=I Love You Honey
TTITLE7=There He Goes
TTITLE8=He'll Do For You (What He's Done For Me)
TTITLE9=Crazy Dreams
EXTD=YEAR: 2002
EXTT0=
EXTT1=
EXTT2=
EXTT3=
EXTT4=
EXTT5=
EXTT6=
EXTT7=
EXTT8=
EXTT9=
PLAYORDER=
